<svg id="Logo" xmlns="http://www.w3.org/2000/svg" width="206.79" height="48.315" viewBox="0 0 206.79 48.315">
  <g id="BOOKLY" transform="translate(0 0)">
    <g id="BOOKLY-2" data-name="BOOKLY" transform="translate(0 0)" fill="#fff">
      <path d="M 50.59012985229492 47.31684875488281 C 48.15647125244141 47.31684875488281 45.88010025024414 46.85697937011719 43.82426071166992 45.95005798339844 C 41.76649475097656 45.04227066040039 39.86647033691406 43.65879821777344 38.17699813842773 41.83803176879883 C 36.48368072509766 40.01576995849609 35.19644546508789 37.96024322509766 34.35076141357422 35.72824478149414 C 33.50389099121094 33.49313735961914 33.07449722290039 31.0147705078125 33.07449722290039 28.36195373535156 C 33.07449722290039 25.70948028564453 33.50389099121094 23.2314281463623 34.35073471069336 20.99666595458984 C 35.19623184204102 18.76550674438477 36.48352432250977 16.70958518981934 38.17686462402344 14.8859806060791 C 39.86691665649414 13.06592845916748 41.76699829101562 11.68274402618408 43.82431411743164 10.77482318878174 C 45.88091659545898 9.867218017578125 48.15726089477539 9.407033920288086 50.59012985229492 9.407033920288086 C 53.02178573608398 9.407033920288086 55.29960250854492 9.867270469665527 57.36031341552734 10.7749547958374 C 59.42178726196289 11.68298053741455 61.32904815673828 13.06648063659668 63.02918243408203 14.88700675964355 C 64.72988891601562 16.71074485778809 66.02310180664062 18.76669120788574 66.87265777587891 20.9974536895752 C 67.72383880615234 23.23250770568848 68.15541839599609 25.71026992797852 68.15541839599609 28.36195373535156 C 68.15541839599609 31.01395416259766 67.72378540039062 33.49429702758789 66.87252044677734 35.73411178588867 C 66.022705078125 37.97011184692383 64.72928619384766 40.03274536132812 63.02820587158203 41.86463928222656 C 61.33020782470703 43.67514038085938 59.42296981811523 45.05224227905273 57.36115264892578 45.95590209960938 C 55.30073165893555 46.85895538330078 53.02262878417969 47.31684875488281 50.59012985229492 47.31684875488281 Z M 194.3788146972656 46.56861114501953 L 188.5795288085938 46.56861114501953 L 188.5795288085938 32.47740173339844 L 188.5795288085938 32.35521697998047 L 188.5231781005859 32.24682235717773 L 177.0414123535156 10.15529632568359 L 183.6466827392578 10.15529632568359 L 191.0539245605469 25.47961235046387 L 191.5040740966797 26.41092872619629 L 191.9542388916016 25.47961235046387 L 199.3613739013672 10.15529632568359 L 205.9650421142578 10.15529632568359 L 194.435546875 32.24605941772461 L 194.3788146972656 32.35477066040039 L 194.3788146972656 32.47740173339844 L 194.3788146972656 46.56861114501953 Z M 175.3061828613281 46.56861114501953 L 156.2060241699219 46.56861114501953 L 156.2060241699219 10.15529632568359 L 162.0549774169922 10.15529632568359 L 162.0549774169922 40.01353454589844 L 162.0549774169922 40.51353454589844 L 162.5549774169922 40.51353454589844 L 175.3061828613281 40.51353454589844 L 175.3061828613281 46.56861114501953 Z M 147.2391204833984 46.56861114501953 L 140.5621032714844 46.56861114501953 L 128.3041534423828 29.24895477294922 L 127.3960266113281 27.96582221984863 L 127.3960266113281 29.53779602050781 L 127.3960266113281 46.56861114501953 L 121.5470733642578 46.56861114501953 L 121.5470733642578 10.15529632568359 L 127.3960266113281 10.15529632568359 L 127.3960266113281 26.17058563232422 L 127.3960266113281 27.71861267089844 L 128.3015441894531 26.46306037902832 L 140.0630340576172 10.15529632568359 L 146.7321929931641 10.15529632568359 L 134.4359893798828 27.53874397277832 L 134.2337036132812 27.8247184753418 L 134.4334106445312 28.11250686645508 L 147.2391204833984 46.56861114501953 Z M 14.74004936218262 46.56861114501953 L 0.4999966323375702 46.56861114501953 L 0.4999966323375702 10.15529632568359 L 13.69783878326416 10.15529632568359 C 15.11668109893799 10.15529632568359 16.43878555297852 10.39305973052979 17.62741851806641 10.86200714111328 C 18.81289100646973 11.32969093322754 19.90325927734375 12.04234886169434 20.86825942993164 12.98019123077393 C 21.8305492401123 13.91540145874023 22.56196975708008 14.99306011199951 23.04223442077637 16.18326950073242 C 23.52446937561035 17.37834930419922 23.76897048950195 18.72455978393555 23.76897048950195 20.18448066711426 C 23.76897048950195 21.65800666809082 23.50757598876953 23.00240135192871 22.99202346801758 24.18029594421387 C 22.47862815856934 25.35326957702637 21.69623374938965 26.39913940429688 20.66652297973633 27.28879737854004 L 20.15191841125488 27.73340225219727 L 20.72978591918945 28.09197998046875 C 22.1690502166748 28.98508644104004 23.2616024017334 30.11753273010254 23.97707557678223 31.45784950256348 C 24.6952075958252 32.80313873291016 25.05933952331543 34.40495300292969 25.05933952331543 36.21874237060547 C 25.05933952331543 37.73326873779297 24.80841827392578 39.12737655639648 24.31354904174805 40.36235046386719 C 23.82107543945312 41.59135055541992 23.07086563110352 42.70216369628906 22.08375930786133 43.66398239135742 C 21.09389114379883 44.6284294128418 19.97641754150391 45.36127090454102 18.76236534118652 45.84211349487305 C 17.54523277282715 46.32419204711914 16.19191741943359 46.56861114501953 14.74004936218262 46.56861114501953 Z M 94.03110504150391 38.40982437133789 C 91.59867858886719 38.40982437133789 89.32291412353516 37.94995498657227 87.26705169677734 37.04300689697266 C 85.20925903320312 36.13521575927734 83.30857849121094 34.75168991088867 81.61781311035156 32.93087387084961 C 79.92526245117188 31.1068229675293 78.63823699951172 29.05082321166992 77.79262542724609 26.82013893127441 C 76.94518280029297 24.58458518981934 76.51549530029297 22.10655975341797 76.51549530029297 19.45490264892578 C 76.51549530029297 16.80324363708496 76.94518280029297 14.32521724700928 77.79262542724609 12.08969116210938 C 78.63823699951172 9.858981132507324 79.92526245117188 7.803007125854492 81.61794281005859 5.978822708129883 C 83.30857849121094 4.158138751983643 85.20925903320312 2.774612426757812 87.26705169677734 1.866822957992554 C 89.32291412353516 0.9598755836486816 91.59867858886719 0.500007152557373 94.03110504150391 0.500007152557373 C 96.46475982666016 0.500007152557373 98.74323272705078 0.9599282145500183 100.8032073974609 1.866954565048218 C 102.8650512695312 2.774822950363159 104.7716293334961 4.158559799194336 106.4699172973633 5.97971773147583 C 108.171630859375 7.803217887878418 109.4650726318359 9.859086036682129 110.3144989013672 12.0903491973877 C 111.1650466918945 14.32458591461182 111.5963134765625 16.80240249633789 111.5963134765625 19.45490264892578 C 111.5963134765625 22.1077709197998 111.1649932861328 24.58813858032227 110.3143615722656 26.82713890075684 C 109.4646835327148 29.06363868713379 108.1710205078125 31.12619209289551 106.4693145751953 32.9575080871582 C 104.7723159790039 34.76819229125977 102.8657302856445 36.14524459838867 100.8039932250977 37.04887390136719 C 98.74354553222656 37.95192718505859 96.46481323242188 38.40982437133789 94.03110504150391 38.40982437133789 Z" stroke="none"/>
      <path d="M 50.59012985229492 46.81684875488281 C 52.95310211181641 46.81684875488281 55.16368103027344 46.37311172485352 57.16044235229492 45.49795532226562 C 59.15996932983398 44.62161254882812 61.01205062866211 43.28350830078125 62.66181182861328 41.52442932128906 C 64.31886291503906 39.73992919921875 65.57831573486328 37.73200607299805 66.4051513671875 35.55648040771484 C 67.23475646972656 33.37361145019531 67.65541839599609 30.95303344726562 67.65541839599609 28.36195373535156 C 67.65541839599609 25.77132225036621 67.23484039306641 23.35340118408203 66.40538787841797 21.17540168762207 C 65.57894134521484 19.00532341003418 64.31991577148438 17.00424385070801 62.66373443603516 15.22827053070068 C 61.01007461547852 13.45748043060303 59.15794372558594 12.11313915252686 57.15876007080078 11.23253345489502 C 55.16197204589844 10.35300731658936 52.95196914672852 9.907033920288086 50.59012985229492 9.907033920288086 C 48.22720718383789 9.907033920288086 46.0187873840332 10.35290145874023 44.02618026733398 11.23227024078369 C 42.03147125244141 12.11253356933594 40.18675994873047 13.45629692077637 38.54325866699219 15.22619152069092 C 36.89407730102539 17.00226974487305 35.64081192016602 19.00334930419922 34.81831359863281 21.17384910583496 C 33.99296951293945 23.35179710388184 33.57449722290039 25.77021789550781 33.57449722290039 28.36195373535156 C 33.57449722290039 30.95403289794922 33.99296951293945 33.37279510498047 34.81831359863281 35.55108642578125 C 35.64099502563477 37.72235107421875 36.89418029785156 39.72300720214844 38.54349517822266 41.49795532226562 C 40.1863899230957 43.26848220825195 42.03099822998047 44.61245346069336 44.02607727050781 45.49258422851562 C 46.0179443359375 46.37129592895508 48.22641754150391 46.81684875488281 50.59012985229492 46.81684875488281 M 193.8788146972656 46.06861114501953 L 193.8788146972656 32.23213958740234 L 205.1400756835938 10.65529632568359 L 199.6750335693359 10.65529632568359 L 191.5040740966797 27.55984878540039 L 183.3330078125 10.65529632568359 L 177.8647766113281 10.65529632568359 L 189.0795288085938 32.23305892944336 L 189.0795288085938 46.06861114501953 L 193.8788146972656 46.06861114501953 M 174.8061828613281 46.06861114501953 L 174.8061828613281 41.01353454589844 L 161.5549774169922 41.01353454589844 L 161.5549774169922 10.65529632568359 L 156.7060241699219 10.65529632568359 L 156.7060241699219 46.06861114501953 L 174.8061828613281 46.06861114501953 M 146.2836151123047 46.06861114501953 L 133.6232299804688 27.82195472717285 L 145.7660980224609 10.65529632568359 L 140.3188934326172 10.65529632568359 L 127.9222106933594 27.84379386901855 L 140.8207855224609 46.06861114501953 L 146.2836151123047 46.06861114501953 M 126.8960266113281 46.06861114501953 L 126.8960266113281 10.65529632568359 L 122.0470733642578 10.65529632568359 L 122.0470733642578 46.06861114501953 L 126.8960266113281 46.06861114501953 M 14.74004936218262 46.06861114501953 C 17.53883934020996 46.06861114501953 19.82683944702148 45.16490173339844 21.73481178283691 43.30585098266602 C 23.63541793823242 41.4539794921875 24.55933952331543 39.13576889038086 24.55933952331543 36.21874237060547 C 24.55933952331543 32.74526977539062 23.22044372558594 30.22595405578613 20.46615409851074 28.51684951782227 L 19.31044387817383 27.79969215393066 L 20.33962821960449 26.91045379638672 C 22.3107852935791 25.20737648010254 23.26897048950195 23.00729751586914 23.26897048950195 20.18448066711426 C 23.26897048950195 17.37587547302246 22.36970710754395 15.13661193847656 20.5197868347168 13.33876991271973 C 18.66181182861328 11.53306007385254 16.43031311035156 10.65529632568359 13.69783878326416 10.65529632568359 L 0.9999966621398926 10.65529632568359 L 0.9999966621398926 46.06861114501953 L 14.74004936218262 46.06861114501953 M 94.03110504150391 37.90982437133789 C 96.39530944824219 37.90982437133789 98.60649871826172 37.46608734130859 100.6032867431641 36.59092712402344 C 102.6026840209961 35.71463775634766 104.4540481567383 34.37661361694336 106.1030502319336 32.61713790893555 C 107.7606582641602 30.83329582214355 109.0202865600586 28.82550621032715 109.8469696044922 26.64955902099609 C 110.6759719848633 24.46750640869141 111.0963134765625 22.04684829711914 111.0963134765625 19.45490264892578 C 111.0963134765625 16.86340141296387 110.6760482788086 14.44545459747314 109.8472061157227 12.26824378967285 C 109.0209197998047 10.09777069091797 107.7617034912109 8.096822738647461 106.1042633056641 6.320717811584473 C 104.4524688720703 4.549454689025879 102.6011276245117 3.204954624176025 100.6017074584961 2.324559688568115 C 98.60562896728516 1.4456387758255 96.39497375488281 1.000007152557373 94.03110504150391 1.000007152557373 C 91.66860198974609 1.000007152557373 89.46076202392578 1.445559740066528 87.46886444091797 2.324270248413086 C 85.47370910644531 3.20445442199707 83.62839508056641 4.54853343963623 81.98444366455078 6.318902015686035 C 80.33583831787109 8.095612525939941 79.08280944824219 10.09679698944092 78.26015472412109 12.26692771911621 C 77.43425750732422 14.44563865661621 77.01549530029297 16.8640079498291 77.01549530029297 19.45490264892578 C 77.01549530029297 22.04579734802246 77.43425750732422 24.46419143676758 78.26015472412109 26.64290237426758 C 79.08280944824219 28.81303405761719 80.33583831787109 30.81421852111816 81.98420715332031 32.59066390991211 C 83.62839508056641 34.36129760742188 85.47370910644531 35.70537567138672 87.46886444091797 36.5855598449707 C 89.46076202392578 37.46427154541016 91.66860198974609 37.90982437133789 94.03110504150391 37.90982437133789 M 50.59012985229492 47.81684875488281 C 45.5601806640625 47.81684875488281 41.29946899414062 45.93819046020508 37.81047058105469 42.17813873291016 C 34.31902313232422 38.42076873779297 32.57449722290039 33.8135871887207 32.57449722290039 28.36195373535156 C 32.57449722290039 22.91029739379883 34.31902313232422 18.30579566955566 37.81047058105469 14.54574394226074 C 41.29946899414062 10.78840160369873 45.5601806640625 8.907033920288086 50.59012985229492 8.907033920288086 C 55.61763000488281 8.907033920288086 59.88578796386719 10.78840160369873 63.39460372924805 14.54574394226074 C 66.90099334716797 18.30579566955566 68.65541839599609 22.91029739379883 68.65541839599609 28.36195373535156 C 68.65541839599609 33.8135871887207 66.90099334716797 38.42879486083984 63.39460372924805 42.20487594604492 C 59.88578796386719 45.94618988037109 55.61763000488281 47.81684875488281 50.59012985229492 47.81684875488281 Z M 194.8788146972656 47.06861114501953 L 188.0795288085938 47.06861114501953 L 188.0795288085938 32.47740173339844 L 176.2180480957031 9.655296325683594 L 183.9603424072266 9.655296325683594 L 191.5040740966797 25.26200675964355 L 199.0477142333984 9.655296325683594 L 206.7899932861328 9.655296325683594 L 194.8788146972656 32.47740173339844 L 194.8788146972656 47.06861114501953 Z M 175.8061828613281 47.06861114501953 L 155.7060241699219 47.06861114501953 L 155.7060241699219 9.655296325683594 L 162.5549774169922 9.655296325683594 L 162.5549774169922 40.01353454589844 L 175.8061828613281 40.01353454589844 L 175.8061828613281 47.06861114501953 Z M 148.1945953369141 47.06861114501953 L 140.3034210205078 47.06861114501953 L 127.8960266113281 29.53779602050781 L 127.8960266113281 47.06861114501953 L 121.0470733642578 47.06861114501953 L 121.0470733642578 9.655296325683594 L 127.8960266113281 9.655296325683594 L 127.8960266113281 26.17058563232422 L 139.8071746826172 9.655296325683594 L 147.6983184814453 9.655296325683594 L 134.8442077636719 27.82748031616211 L 148.1945953369141 47.06861114501953 Z M 14.74004936218262 47.06861114501953 L -3.356933575560106e-06 47.06861114501953 L -3.356933575560106e-06 9.655296325683594 L 13.69783878326416 9.655296325683594 C 16.67562866210938 9.655296325683594 19.18191719055176 10.64408588409424 21.21673393249512 12.62163829803467 C 23.25154876708984 14.59919166564941 24.26897048950195 17.12192726135254 24.26897048950195 20.18448066711426 C 24.26897048950195 23.28442764282227 23.17710113525391 25.78042793273926 20.99341773986816 27.66713905334473 C 24.0382080078125 29.5565071105957 25.55933952331543 32.40792846679688 25.55933952331543 36.21874237060547 C 25.55933952331543 39.39085006713867 24.51712799072266 41.99108505249023 22.43268013000488 44.02208709716797 C 20.34820747375488 46.0531120300293 17.78483963012695 47.06861114501953 14.74004936218262 47.06861114501953 Z M 94.03110504150391 38.90982437133789 C 89.00357818603516 38.90982437133789 84.742919921875 37.0311393737793 81.25141906738281 33.27111053466797 C 77.76244354248047 29.51108551025391 76.01549530029297 24.90655899047852 76.01549530029297 19.45490264892578 C 76.01549530029297 14.00327014923096 77.76244354248047 9.398743629455566 81.25141906738281 5.638717651367188 C 84.742919921875 1.87869131565094 89.00357818603516 7.139507033571135e-06 94.03110504150391 7.139507033571135e-06 C 99.06107330322266 7.139507033571135e-06 103.3292083740234 1.87869131565094 106.8356018066406 5.638717651367188 C 110.3444442749023 9.398743629455566 112.0963134765625 14.00327014923096 112.0963134765625 19.45490264892578 C 112.0963134765625 24.90655899047852 110.3444442749023 29.52177047729492 106.8356018066406 33.29784774780273 C 103.3292083740234 37.03916549682617 99.06107330322266 38.90982437133789 94.03110504150391 38.90982437133789 Z" stroke="none" fill="#707070"/>
    </g>
  </g>
  <path id="Path_72" data-name="Path 72" d="M0,.5H9" transform="translate(89.395 47.065)" fill="none" stroke="#fff" stroke-linecap="round" stroke-miterlimit="10" stroke-width="1.5"/>
</svg>
